<?xml version="1.0" encoding="iso-8859-1"?>
<!-- Generator: Adobe Illustrator 16.0.0, SVG Export Plug-In . SVG Version: 6.00 Build 0)  -->
<!DOCTYPE svg PUBLIC "-//W3C//DTD SVG 1.1//EN" "http://www.w3.org/Graphics/SVG/1.1/DTD/svg11.dtd">
<svg version="1.1" id="Capa_1" xmlns="http://www.w3.org/2000/svg" xmlns:xlink="http://www.w3.org/1999/xlink" x="0px" y="0px"
	 width="44.93px" height="44.929px" viewBox="0 0 44.93 44.929" style="enable-background:new 0 0 44.93 44.929;"
	 xml:space="preserve">
<g>
	<g>
		<path d="M44.373,20.481L26.194,2.302c-2.057-2.058-5.404-2.058-7.459,0L0.556,20.481c-0.741,0.741-0.741,1.942,0,2.683
			c0.741,0.741,1.943,0.741,2.684,0L21.417,4.986c0.56-0.559,1.533-0.559,2.093,0l18.18,18.18c0.369,0.37,0.855,0.556,1.341,0.556
			s0.972-0.187,1.342-0.556C45.114,22.424,45.114,21.222,44.373,20.481z"/>
		<path d="M23.358,8.503c-0.491-0.491-1.29-0.491-1.781,0L6.24,23.848c-0.236,0.236-0.36,0.556-0.36,0.889v16.674
			c0,1.508,1.204,2.76,2.71,2.76h27.749c1.507,0,2.743-1.252,2.743-2.76V24.738c0-0.333-0.14-0.652-0.375-0.889L23.358,8.503z
			 M30.866,31.622c-0.113,0.113-5.629,5.604-7.662,7.625c-0.409,0.407-1.072,0.407-1.481,0c-2.032-2.021-7.548-7.511-7.661-7.625
			c-2.325-2.324-2.325-6.094,0-8.418c2.319-2.317,6.076-2.323,8.401-0.017c2.326-2.307,6.083-2.302,8.401,0.017
			C33.19,25.528,33.19,29.297,30.866,31.622z"/>
	</g>
</g>
<g>
</g>
<g>
</g>
<g>
</g>
<g>
</g>
<g>
</g>
<g>
</g>
<g>
</g>
<g>
</g>
<g>
</g>
<g>
</g>
<g>
</g>
<g>
</g>
<g>
</g>
<g>
</g>
<g>
</g>
</svg>
