<?xml version="1.0" encoding="iso-8859-1"?>
<!-- Generator: Adobe Illustrator 18.0.0, SVG Export Plug-In . SVG Version: 6.00 Build 0)  -->
<!DOCTYPE svg PUBLIC "-//W3C//DTD SVG 1.1//EN" "http://www.w3.org/Graphics/SVG/1.1/DTD/svg11.dtd">
<svg version="1.1" id="Capa_1" xmlns="http://www.w3.org/2000/svg" xmlns:xlink="http://www.w3.org/1999/xlink" x="0px" y="0px"
	 viewBox="0 0 53.943 53.943" style="enable-background:new 0 0 53.943 53.943;" xml:space="preserve">
<g>
	<path d="M53.364,40.909c-2.008-3.796-8.981-7.912-9.287-8.092c-1.278-0.728-2.601-0.955-3.721-0.646
		c-0.844,0.234-1.532,0.768-1.996,1.546c-1.02,1.22-2.286,2.646-2.592,2.867c-2.036,1.379-3.714,1.424-5.444,0.111
		c-0.054-0.042-0.115-0.087-0.164-0.127c-0.227-0.183-0.456-0.383-0.686-0.613L17.987,24.469c-2.044-2.045-2.232-3.928-0.632-6.291
		c0.224-0.31,1.65-1.575,2.871-2.596c0.778-0.463,1.312-1.15,1.545-1.994c0.312-1.123,0.082-2.445-0.652-3.733
		c-0.173-0.296-4.29-7.269-8.085-9.276C11.108-0.44,8.778-0.091,7.237,1.45L4.7,3.987C0.687,8-0.767,12.549,0.38,17.506
		c0.956,4.132,3.742,8.529,8.282,13.069L23.367,45.28c4.54,4.54,8.937,7.326,13.069,8.282c1.095,0.253,2.169,0.38,3.223,0.38
		c3.717-0.001,7.169-1.573,10.296-4.701l2.537-2.536C54.033,45.163,54.383,42.834,53.364,40.909z M51.078,45.291l-2.537,2.536
		C45,51.37,41.188,52.607,36.886,51.614c-3.762-0.87-7.834-3.477-12.105-7.748L10.076,29.161c-4.271-4.271-6.878-8.344-7.748-12.105
		c-0.995-4.3,0.244-8.112,3.786-11.654l2.537-2.537c0.567-0.566,1.313-0.862,2.07-0.862c0.467,0,0.939,0.112,1.376,0.344
		c3.294,1.743,7.256,8.453,7.29,8.51c0.449,0.788,0.62,1.609,0.457,2.197c-0.1,0.36-0.323,0.633-0.683,0.835l-0.151,0.104
		c-0.853,0.712-2.882,2.433-3.309,3.062c-0.659,0.973-1.085,1.929-1.281,2.865c-0.838-1.532-1.541-3.36-1.755-5.414
		c-0.057-0.548-0.544-0.934-1.098-0.892c-0.549,0.058-0.949,0.549-0.892,1.099c0.722,6.953,6.129,11.479,6.359,11.668
		c0.023,0.019,0.051,0.026,0.076,0.043l10.775,10.775c0.03,0.04,0.046,0.087,0.083,0.123c0.189,0.187,4.704,4.567,11.599,5.283
		c0.035,0.003,0.07,0.005,0.104,0.005c0.506,0,0.94-0.383,0.994-0.896c0.057-0.55-0.342-1.041-0.892-1.099
		c-1.863-0.193-3.541-0.698-4.983-1.307c0.69-0.234,1.389-0.585,2.098-1.065c0.628-0.425,2.35-2.455,3.061-3.308l0.104-0.151
		c0.202-0.359,0.475-0.583,0.835-0.683c0.588-0.164,1.409,0.008,2.186,0.45c0.068,0.04,6.778,4.002,8.521,7.296
		C52.202,42.989,51.994,44.374,51.078,45.291z"/>
	<path d="M29.555,24.928c0.122,0.051,0.252,0.077,0.382,0.077h12c0.552,0,1-0.447,1-1s-0.448-1-1-1h-9.586L47.644,7.712
		c0.391-0.391,0.391-1.023,0-1.414s-1.023-0.391-1.414,0L30.937,21.591v-9.586c0-0.553-0.448-1-1-1s-1,0.447-1,1v12
		c0,0.13,0.027,0.26,0.077,0.382C29.116,24.632,29.311,24.827,29.555,24.928z"/>
</g>
<g>
</g>
<g>
</g>
<g>
</g>
<g>
</g>
<g>
</g>
<g>
</g>
<g>
</g>
<g>
</g>
<g>
</g>
<g>
</g>
<g>
</g>
<g>
</g>
<g>
</g>
<g>
</g>
<g>
</g>
</svg>
